<svg width="20" height="20" viewBox="0 0 20 20" fill="none" xmlns="http://www.w3.org/2000/svg">
<path d="M2.80002 0.600098H17.2C17.86 0.600098 18.424 0.840098 18.892 1.3081C19.36 1.7761 19.6 2.3401 19.6 3.0001V11.4001C19.6 12.0601 19.36 12.6241 18.892 13.0921C18.424 13.5601 17.86 13.8001 17.2 13.8001H16L10 19.8001V13.8001H2.80002C2.14002 13.8001 1.57602 13.5601 1.10802 13.0921C0.640024 12.6241 0.400024 12.0601 0.400024 11.4001V3.0001C0.400024 2.3401 0.640024 1.7761 1.10802 1.3081C1.57602 0.840098 2.14002 0.600098 2.80002 0.600098ZM16 3.0001H2.80002V4.2001H16V3.0001ZM17.2 6.6001H2.80002V7.8001H17.2V6.6001ZM13.6 10.2001H2.80002V11.4001H13.6V10.2001Z" fill="#272727"/>
</svg>
