<svg width="18" height="20" viewBox="0 0 18 20" fill="none" xmlns="http://www.w3.org/2000/svg">
<path d="M1.34161 11.8253L13.811 1.68464C13.8798 1.62905 13.9621 1.59271 14.0495 1.57932C14.1369 1.56593 14.2263 1.57597 14.3086 1.60841C14.3909 1.64086 14.4631 1.69455 14.5179 1.76401C14.5726 1.83347 14.608 1.91621 14.6203 2.00379L16.8122 17.9259C16.8259 18.0278 16.8078 18.1315 16.7604 18.2228C16.7131 18.3141 16.6387 18.3885 16.5475 18.436C16.4562 18.4835 16.3526 18.5016 16.2506 18.4881C16.1487 18.4745 16.0534 18.4298 15.9778 18.3601L10.0568 12.8842C9.96503 12.7995 9.84489 12.7521 9.71999 12.7514L1.65478 12.7131C1.55174 12.7126 1.45138 12.6803 1.36742 12.6205C1.28346 12.5608 1.22 12.4766 1.18573 12.3794C1.15145 12.2823 1.14803 12.1769 1.17594 12.0777C1.20384 11.9785 1.2617 11.8904 1.34161 11.8253Z" fill="#272727" stroke="#272727" stroke-width="1.5" stroke-linecap="round" stroke-linejoin="round"/>
</svg>
