<svg width="22" height="20" viewBox="0 0 22 20" fill="none" xmlns="http://www.w3.org/2000/svg">
<path d="M6 6.5L8.942 8.24C10.657 9.254 11.342 9.254 13.058 8.24L16 6.5" stroke="#636363" stroke-width="1.5" stroke-linecap="round" stroke-linejoin="round"/>
<path d="M1.01581 11.4761C1.08081 14.5411 1.11381 16.0741 2.24481 17.2091C3.37581 18.3451 4.94981 18.3841 8.09881 18.4631C10.0388 18.5131 11.9608 18.5131 13.9008 18.4631C17.0498 18.3841 18.6238 18.3451 19.7548 17.2091C20.8858 16.0741 20.9188 14.5411 20.9848 11.4761C21.0048 10.4901 21.0048 9.51008 20.9848 8.52408C20.9188 5.45908 20.8858 3.92608 19.7548 2.79108C18.6238 1.65508 17.0498 1.61608 13.9008 1.53708C11.9671 1.48829 10.0325 1.48829 8.09881 1.53708C4.94981 1.61608 3.37581 1.65508 2.24481 2.79108C1.11381 3.92608 1.08081 5.45908 1.01481 8.52408C0.993761 9.50797 0.994761 10.4922 1.01581 11.4761Z" stroke="#636363" stroke-width="1.5" stroke-linecap="round" stroke-linejoin="round"/>
</svg>
