<svg width="20" height="20" viewBox="0 0 20 20" fill="none" xmlns="http://www.w3.org/2000/svg">
<path d="M13 3.3999C13 4.19555 12.684 4.95861 12.1213 5.52122C11.5587 6.08383 10.7957 6.3999 10 6.3999C9.20437 6.3999 8.44131 6.08383 7.8787 5.52122C7.31609 4.95861 7.00002 4.19555 7.00002 3.3999C7.00002 2.60425 7.31609 1.84119 7.8787 1.27858C8.44131 0.715973 9.20437 0.399902 10 0.399902C10.7957 0.399902 11.5587 0.715973 12.1213 1.27858C12.684 1.84119 13 2.60425 13 3.3999ZM19 3.9999C19 4.63642 18.7472 5.24687 18.2971 5.69696C17.847 6.14705 17.2365 6.3999 16.6 6.3999C15.9635 6.3999 15.3531 6.14705 14.903 5.69696C14.4529 5.24687 14.2 4.63642 14.2 3.9999C14.2 3.36338 14.4529 2.75293 14.903 2.30285C15.3531 1.85276 15.9635 1.5999 16.6 1.5999C17.2365 1.5999 17.847 1.85276 18.2971 2.30285C18.7472 2.75293 19 3.36338 19 3.9999ZM3.40002 6.3999C4.03654 6.3999 4.64699 6.14705 5.09708 5.69696C5.54717 5.24687 5.80002 4.63642 5.80002 3.9999C5.80002 3.36338 5.54717 2.75293 5.09708 2.30285C4.64699 1.85276 4.03654 1.5999 3.40002 1.5999C2.7635 1.5999 2.15306 1.85276 1.70297 2.30285C1.25288 2.75293 1.00002 3.36338 1.00002 3.9999C1.00002 4.63642 1.25288 5.24687 1.70297 5.69696C2.15306 6.14705 2.7635 6.3999 3.40002 6.3999ZM5.20002 9.0999C5.20002 8.2719 5.87202 7.5999 6.70002 7.5999H13.3C14.128 7.5999 14.8 8.2719 14.8 9.0999V14.7999C14.8 16.0729 14.2943 17.2938 13.3941 18.194C12.494 19.0942 11.2731 19.5999 10 19.5999C8.72698 19.5999 7.50608 19.0942 6.60591 18.194C5.70574 17.2938 5.20002 16.0729 5.20002 14.7999V9.0999ZM4.00002 9.0999C4.00002 8.5443 4.16802 8.0295 4.45482 7.5999H1.90002C1.07202 7.5999 0.400024 8.2719 0.400024 9.0999V13.5999C0.399968 14.1136 0.509871 14.6214 0.722346 15.0892C0.934822 15.5569 1.24495 15.9738 1.63189 16.3117C2.01883 16.6497 2.47362 16.9009 2.9657 17.0485C3.45779 17.1961 3.97576 17.2367 4.48482 17.1675C4.16431 16.4193 3.99937 15.6138 4.00002 14.7999V9.0999ZM16 14.7999C16 15.6399 15.8272 16.4415 15.5152 17.1675C15.6736 17.1891 15.8352 17.1999 16 17.1999C16.9548 17.1999 17.8705 16.8206 18.5456 16.1455C19.2207 15.4704 19.6 14.5547 19.6 13.5999V9.0999C19.6 8.2719 18.928 7.5999 18.1 7.5999H15.5452C15.8332 8.0295 16 8.5443 16 9.0999V14.7999Z" fill="#272727"/>
</svg>
