<svg width="24" height="24" viewBox="0 0 24 24" fill="none" xmlns="http://www.w3.org/2000/svg">
<path d="M20.749 12.0001L21.853 10.0921C21.9857 9.8625 22.0218 9.58964 21.9533 9.33349C21.8849 9.07733 21.7175 8.85884 21.488 8.72606L19.578 7.62206V5.42206C19.578 5.15684 19.4726 4.90249 19.2851 4.71495C19.0976 4.52741 18.8432 4.42206 18.578 4.42206H16.379L15.276 2.51306C15.1435 2.28339 14.9251 2.11577 14.669 2.04706C14.5421 2.01306 14.4098 2.00439 14.2796 2.02155C14.1493 2.03871 14.0237 2.08136 13.91 2.14706L12 3.25106L10.09 2.14606C9.86032 2.01346 9.58737 1.97752 9.3312 2.04616C9.07503 2.1148 8.85661 2.28238 8.724 2.51206L7.62 4.42206H5.421C5.15578 4.42206 4.90143 4.52741 4.71389 4.71495C4.52636 4.90249 4.421 5.15684 4.421 5.42206V7.62106L2.511 8.72506C2.39723 8.7908 2.29753 8.87833 2.2176 8.98263C2.13768 9.08693 2.07909 9.20596 2.04519 9.33291C2.01129 9.45987 2.00275 9.59226 2.02005 9.72252C2.03734 9.85278 2.08014 9.97835 2.146 10.0921L3.25 12.0001L2.146 13.9081C2.01399 14.1378 1.97817 14.4105 2.04636 14.6666C2.11454 14.9226 2.2812 15.1414 2.51 15.2751L4.42 16.3791V18.5781C4.42 18.8433 4.52536 19.0976 4.71289 19.2852C4.90043 19.4727 5.15478 19.5781 5.42 19.5781H7.62L8.724 21.4881C8.81253 21.6394 8.93893 21.7651 9.09078 21.8528C9.24262 21.9404 9.41467 21.9871 9.59 21.9881C9.764 21.9881 9.937 21.9421 10.091 21.8531L11.999 20.7491L13.909 21.8531C14.1386 21.9857 14.4114 22.0218 14.6676 21.9534C14.9237 21.8849 15.1422 21.7176 15.275 21.4881L16.378 19.5781H18.577C18.8422 19.5781 19.0966 19.4727 19.2841 19.2852C19.4716 19.0976 19.577 18.8433 19.577 18.5781V16.3791L21.487 15.2751C21.6008 15.2093 21.7005 15.1218 21.7804 15.0175C21.8603 14.9132 21.9189 14.7942 21.9528 14.6672C21.9867 14.5402 21.9952 14.4079 21.978 14.2776C21.9607 14.1473 21.9179 14.0218 21.852 13.9081L20.749 12.0001ZM9.499 6.99006C9.89696 6.99019 10.2786 7.14841 10.5599 7.4299C10.8412 7.71139 10.9991 8.0931 10.999 8.49106C10.9989 8.88902 10.8407 9.27062 10.5592 9.55193C10.2777 9.83323 9.89596 9.99119 9.498 9.99106C9.10004 9.99093 8.71844 9.83271 8.43713 9.55122C8.15583 9.26973 7.99787 8.88801 7.998 8.49006C7.99813 8.0921 8.15635 7.71049 8.43784 7.42919C8.71933 7.14789 9.10104 6.98992 9.499 6.99006ZM9.799 16.5901L8.199 15.3911L14.199 7.39106L15.799 8.59006L9.799 16.5901ZM14.499 16.9901C14.302 16.99 14.1068 16.9511 13.9248 16.8756C13.7428 16.8002 13.5774 16.6896 13.4381 16.5502C13.2988 16.4108 13.1884 16.2454 13.113 16.0633C13.0377 15.8812 12.9989 15.6861 12.999 15.4891C12.9991 15.292 13.0379 15.0969 13.1134 14.9149C13.1889 14.7329 13.2995 14.5675 13.4388 14.4282C13.5782 14.2889 13.7437 14.1784 13.9257 14.1031C14.1078 14.0277 14.303 13.989 14.5 13.9891C14.898 13.9892 15.2796 14.1474 15.5609 14.4289C15.8422 14.7104 16.0001 15.0921 16 15.4901C15.9999 15.888 15.8417 16.2696 15.5602 16.5509C15.2787 16.8322 14.897 16.9902 14.499 16.9901Z" fill="#FF4646"/>
</svg>
