<svg width="23" height="24" viewBox="0 0 23 24" fill="none" xmlns="http://www.w3.org/2000/svg">
<path d="M22.2966 0.531234C22.2299 0.365072 22.1017 0.23103 21.9387 0.156992C21.7756 0.0829532 21.5903 0.0746197 21.4213 0.133725C21.2523 0.192829 21.1126 0.314822 21.0312 0.474324C20.9498 0.633825 20.9331 0.818555 20.9845 0.990084C22.0528 4.06058 19.9322 6.35368 18.3153 7.58188L17.6621 6.64578C17.4425 6.33183 16.9514 6.07078 16.5696 6.06618L12.9034 6.08228C12.4555 6.0957 12.0196 6.23001 11.6419 6.47098L0.838771 14.046C0.58749 14.2229 0.416513 14.4921 0.363275 14.7947C0.310038 15.0973 0.378877 15.4087 0.554721 15.6606L5.46407 22.6848C5.83207 23.2081 6.41972 23.1448 6.94412 22.7791L17.7472 15.2029C18.0577 14.9833 18.4165 14.5095 18.543 14.1472L19.6907 10.5305C19.8172 10.1694 19.7402 9.61853 19.5205 9.30458L19.1226 8.73418C21.2938 7.07013 23.5478 4.12958 22.2966 0.531234ZM17.27 11.2929C16.8678 11.5737 16.3707 11.6834 15.8878 11.598C15.4048 11.5126 14.9755 11.2391 14.694 10.8375C14.4121 10.4346 14.3017 9.93638 14.3868 9.45213C14.472 8.96787 14.7458 8.5372 15.1482 8.25463C15.4639 8.03411 15.8404 7.91749 16.2254 7.92099C16.6105 7.92449 16.9848 8.04795 17.2964 8.27418C16.9836 8.46278 16.7686 8.57318 16.7283 8.59043C16.5858 8.6584 16.4705 8.77278 16.4015 8.91482C16.3324 9.05686 16.3137 9.21813 16.3483 9.37222C16.3829 9.52631 16.4688 9.66408 16.592 9.76294C16.7152 9.86181 16.8682 9.91591 17.0262 9.91638C17.1258 9.91638 17.2244 9.89377 17.3217 9.84853C17.5456 9.7435 17.7829 9.617 18.0336 9.46903C18.0903 9.81407 18.0487 10.1681 17.9137 10.4906C17.7787 10.8132 17.5556 11.0912 17.27 11.2929Z" fill="#272727"/>
</svg>
