<svg width="16" height="16" viewBox="0 0 16 16" fill="none" xmlns="http://www.w3.org/2000/svg">
<path d="M4.968 7.26103C4.4265 6.71903 3.5 7.10303 3.5 7.86903V11.5C3.5 11.7652 3.60536 12.0196 3.79289 12.2071C3.98043 12.3947 4.23478 12.5 4.5 12.5H8.131C8.897 12.5 9.281 11.5735 8.739 11.032L4.968 7.26103ZM7.793 11.5H4.5V8.20703L7.793 11.5Z" fill="#717171"/>
<path d="M2.0605 0.499512C1.85555 0.499446 1.6526 0.539765 1.46324 0.618164C1.27389 0.696563 1.10183 0.811506 0.956913 0.956425C0.811995 1.10134 0.697051 1.2734 0.618652 1.46276C0.540253 1.65211 0.499934 1.85507 0.5 2.06001V13.833C0.5 14.275 0.675577 14.6989 0.988107 15.0114C1.30064 15.3239 1.72452 15.4995 2.1665 15.4995H13.94C14.2487 15.4995 14.5504 15.408 14.807 15.2366C15.0637 15.0651 15.2637 14.8214 15.3818 14.5362C15.4999 14.251 15.5309 13.9373 15.4706 13.6345C15.4104 13.3318 15.2618 13.0538 15.0435 12.8355L3.164 0.956512C3.0191 0.811588 2.84706 0.696634 2.65772 0.618221C2.46838 0.539807 2.26544 0.499469 2.0605 0.499512ZM1.5 2.06001C1.49993 1.94911 1.53277 1.84068 1.59436 1.74844C1.65594 1.65621 1.7435 1.58431 1.84596 1.54186C1.94842 1.49941 2.06117 1.48831 2.16994 1.50997C2.27871 1.53162 2.37861 1.58506 2.457 1.66351L2.842 2.04851L2.32 2.56951C2.29509 2.59278 2.27511 2.62082 2.26126 2.65196C2.24741 2.68311 2.23998 2.71673 2.23939 2.75081C2.23881 2.78489 2.24509 2.81874 2.25787 2.85035C2.27064 2.88195 2.28965 2.91066 2.31375 2.93476C2.33785 2.95886 2.36656 2.97787 2.39817 2.99064C2.42977 3.00342 2.46362 3.0097 2.4977 3.00912C2.53178 3.00854 2.5654 3.0011 2.59655 2.98725C2.62769 2.9734 2.65574 2.95343 2.679 2.92851L3.2005 2.40751L4.216 3.42251L3.82 3.81951C3.79509 3.84278 3.77511 3.87082 3.76126 3.90196C3.74741 3.93311 3.73998 3.96673 3.73939 4.00081C3.73881 4.03489 3.74509 4.06874 3.75787 4.10035C3.77064 4.13195 3.78965 4.16066 3.81375 4.18476C3.83785 4.20886 3.86656 4.22787 3.89817 4.24064C3.92977 4.25342 3.96362 4.2597 3.9977 4.25912C4.03178 4.25854 4.0654 4.2511 4.09655 4.23725C4.12769 4.2234 4.15574 4.20343 4.179 4.17851L4.5755 3.78251L5.5915 4.79751L5.07 5.31951C5.04509 5.34278 5.02511 5.37082 5.01126 5.40197C4.99741 5.43311 4.98998 5.46673 4.98939 5.50081C4.98881 5.53489 4.99509 5.56874 5.00787 5.60035C5.02064 5.63195 5.03965 5.66066 5.06375 5.68476C5.08785 5.70886 5.11656 5.72787 5.14817 5.74064C5.17977 5.75342 5.21362 5.7597 5.2477 5.75912C5.28178 5.75854 5.3154 5.7511 5.34655 5.73725C5.37769 5.7234 5.40574 5.70343 5.429 5.67851L5.9505 5.15701L6.9665 6.17301L6.57 6.56951C6.54509 6.59278 6.52511 6.62082 6.51126 6.65197C6.49741 6.68311 6.48998 6.71673 6.48939 6.75081C6.48881 6.78489 6.49509 6.81874 6.50787 6.85035C6.52064 6.88195 6.53965 6.91066 6.56375 6.93476C6.58785 6.95886 6.61656 6.97787 6.64817 6.99064C6.67977 7.00342 6.71362 7.0097 6.7477 7.00912C6.78178 7.00854 6.8154 7.0011 6.84655 6.98725C6.87769 6.9734 6.90574 6.95343 6.929 6.92851L7.3255 6.53201L8.341 7.54801L7.82 8.06951C7.79509 8.09278 7.77511 8.12082 7.76126 8.15197C7.74741 8.18311 7.73998 8.21673 7.73939 8.25081C7.73881 8.28489 7.74509 8.31874 7.75787 8.35035C7.77064 8.38195 7.78965 8.41066 7.81375 8.43476C7.83785 8.45886 7.86656 8.47787 7.89817 8.49064C7.92977 8.50342 7.96362 8.5097 7.9977 8.50912C8.03178 8.50854 8.0654 8.5011 8.09655 8.48725C8.12769 8.4734 8.15574 8.45343 8.179 8.42851L8.7005 7.90701L9.716 8.92301L9.32 9.31951C9.29509 9.34278 9.27511 9.37082 9.26126 9.40197C9.24741 9.43311 9.23998 9.46673 9.23939 9.50081C9.23881 9.53489 9.24509 9.56874 9.25787 9.60035C9.27064 9.63195 9.28965 9.66066 9.31375 9.68476C9.33785 9.70886 9.36656 9.72787 9.39816 9.74064C9.42977 9.75342 9.46362 9.7597 9.4977 9.75912C9.53178 9.75854 9.5654 9.7511 9.59655 9.73725C9.62769 9.7234 9.65574 9.70343 9.679 9.67851L10.0755 9.28201L11.091 10.298L10.57 10.8195C10.5451 10.8428 10.5251 10.8708 10.5113 10.902C10.4974 10.9331 10.49 10.9667 10.4894 11.0008C10.4888 11.0349 10.4951 11.0687 10.5079 11.1003C10.5206 11.1319 10.5396 11.1607 10.5638 11.1848C10.5879 11.2089 10.6166 11.2279 10.6482 11.2406C10.6798 11.2534 10.7136 11.2597 10.7477 11.2591C10.7818 11.2585 10.8154 11.2511 10.8465 11.2373C10.8777 11.2234 10.9057 11.2034 10.929 11.1785L11.4505 10.657L12.466 11.673L12.07 12.0695C12.0451 12.0928 12.0251 12.1208 12.0113 12.152C11.9974 12.1831 11.99 12.2167 11.9894 12.2508C11.9888 12.2849 11.9951 12.3187 12.0079 12.3503C12.0206 12.3819 12.0396 12.4107 12.0638 12.4348C12.0879 12.4589 12.1166 12.4779 12.1482 12.4906C12.1798 12.5034 12.2136 12.5097 12.2477 12.5091C12.2818 12.5085 12.3154 12.5011 12.3465 12.4873C12.3777 12.4734 12.4057 12.4534 12.429 12.4285L12.8255 12.032L13.841 13.048L13.32 13.5695C13.2951 13.5928 13.2751 13.6208 13.2613 13.652C13.2474 13.6831 13.24 13.7167 13.2394 13.7508C13.2388 13.7849 13.2451 13.8187 13.2579 13.8503C13.2706 13.8819 13.2896 13.9107 13.3138 13.9348C13.3379 13.9589 13.3666 13.9779 13.3982 13.9906C13.4298 14.0034 13.4636 14.0097 13.4977 14.0091C13.5318 14.0085 13.5654 14.0011 13.5965 13.9873C13.6277 13.9734 13.6557 13.9534 13.679 13.9285L14.2005 13.407L14.3355 13.542C14.4141 13.6203 14.4677 13.7202 14.4894 13.8291C14.5112 13.9379 14.5002 14.0507 14.4578 14.1532C14.4154 14.2558 14.3435 14.3434 14.2512 14.4051C14.159 14.4667 14.0505 14.4996 13.9395 14.4995H2.1665C1.98973 14.4995 1.82021 14.4293 1.69521 14.3043C1.57022 14.1793 1.5 14.0098 1.5 13.833V2.06001Z" fill="#717171"/>
</svg>
